<svg xmlns="http://www.w3.org/2000/svg" width="16" height="18" viewBox="0 0 16 18">
    <g fill="none" fill-rule="evenodd">
        <g fill="#FFF" fill-rule="nonzero">
            <g transform="translate(-78 -859) translate(78 859)">
                <rect width="2" height="18" rx="1"/>
                <path d="M.835 2C.374 2 0 1.556 0 1c0-.552.374-1 .835-1h8.33C9.626 0 10 .444 10 1c0 .552-.374 1-.835 1H.835z"/>
                <rect width="2" height="10" x="4" y="12" rx="1" transform="rotate(-90 5 17)"/>
                <path d="M3.894 10C3.4 10 3 9.556 3 9c0-.552.403-1 .894-1h11.212C15.6 8 16 8.444 16 9c0 .552-.403 1-.894 1H3.894z"/>
                <path d="M15.79 9.594l-3.562 4.16c-.28.328-.736.328-1.017 0-.281-.328-.281-.86 0-1.189L14.263 9l-3.052-3.565c-.281-.329-.281-.86 0-1.189.28-.328.736-.328 1.017 0l3.561 4.16c.281.328.281.86 0 1.188z"/>
            </g>
        </g>
    </g>
</svg>
