<?xml version="1.0" encoding="UTF-8"?>
<svg width="115px" height="14px" viewBox="0 0 115 14" version="1.1" xmlns="http://www.w3.org/2000/svg" xmlns:xlink="http://www.w3.org/1999/xlink">
    <!-- Generator: Sketch 60.1 (88133) - https://sketch.com -->
    <title>UTM SERVICE CLARO</title>
    <desc>Created with Sketch.</desc>
    <g id="Pantallas-de-error-" stroke="none" stroke-width="1" fill="none" fill-rule="evenodd">
        <g id="claro_vista-utm" transform="translate(-26.000000, -15.000000)" fill-rule="nonzero">
            <g id="UTM-SERVICE-CLARO" transform="translate(26.000000, 15.000000)">
                <g id="Group-8" transform="translate(79.000000, 0.000000)" fill="#EF2539">
                    <polygon id="Path" points="33.6399655 0.853203448 29.5342069 4.96393793 30.6145517 6.04338621 34.7207586 1.93265172"></polygon>
                    <polygon id="Path" points="27.7352759 0 26.2142759 0 26.2142759 4.40637241 27.7352759 4.40637241"></polygon>
                    <polygon id="Path" points="35.8652069 7.74835862 31.3663103 7.74835862 31.3663103 9.27164483 35.8652069 9.27164483"></polygon>
                    <path d="M28.0934483,10.6964448 C27.7330345,11.0736241 27.2932759,11.2517241 26.7692414,11.2517241 C26.2622414,11.2517241 25.8202414,11.0736241 25.462069,10.6964448 C25.1016552,10.3193103 24.9044138,9.87717586 24.9044138,9.37013103 C24.9044138,8.82955517 25.1016552,8.38746552 25.462069,8.02705172 C25.8202414,7.64991724 26.2622414,7.46971034 26.7692414,7.48647586 C27.2932759,7.46971034 27.7330345,7.64991724 28.1104828,8.02705172 C28.4538621,8.38746552 28.634069,8.82955517 28.6511034,9.37013103 C28.634069,9.87717586 28.4538621,10.3193103 28.0934483,10.6964448 Z M29.2881034,6.83064828 C28.5861034,6.12663103 27.7352759,5.78092069 26.7692414,5.78092069 C25.8054483,5.78092069 24.9694138,6.12663103 24.2844483,6.83064828 C23.5802069,7.53466552 23.2368276,8.38535862 23.2368276,9.36802414 C23.2368276,10.3507345 23.5784138,11.2014276 24.2844483,11.8907862 C24.9694138,12.5968655 25.8054483,12.9551724 26.7692414,12.9551724 C27.7330345,12.9551724 28.5838621,12.5968655 29.2881034,11.8907862 C29.9753103,11.2035345 30.3186897,10.3507345 30.3186897,9.36802414 C30.3186897,8.38746552 29.9753103,7.53677241 29.2881034,6.83064828 Z" id="Shape"></path>
                    <path d="M4.38144828,4.03134483 C3.15541379,4.01457931 2.14141379,4.43990345 1.29058621,5.32412759 C0.423172414,6.1936931 4.26325641e-14,7.22454828 4.26325641e-14,8.45237586 C4.26325641e-14,9.66348276 0.425413793,10.7299759 1.29058621,11.5974345 C2.13917241,12.4481276 3.15541379,12.8755586 4.38144828,12.8755586 C5.36406897,12.8755586 6.26286207,12.5801 7.04644828,11.974569 C7.81524138,11.3522724 8.32268966,10.5833 8.58448276,9.63412069 L6.80124138,9.63412069 C6.57306897,10.0930207 6.24627586,10.4680483 5.8352069,10.7635069 C5.37662069,11.0421552 4.9027931,11.1909379 4.3792069,11.1909379 C3.627,11.1909379 2.99,10.9122448 2.46596552,10.3884345 C1.92758621,9.84785862 1.6657931,9.21090345 1.68058621,8.45658966 C1.66355172,7.70438276 1.92758621,7.06532069 2.46596552,6.52474483 C2.99,6.00088966 3.627,5.72224138 4.3792069,5.72224138 C4.9027931,5.72224138 5.37662069,5.86891724 5.8352069,6.16433103 C6.24403448,6.44302414 6.57082759,6.83481724 6.80124138,7.29371724 L8.58448276,7.29371724 C8.32268966,6.34453793 7.81524138,5.5566931 7.04644828,4.95326897 C6.26286207,4.32469655 5.36406897,4.01457931 4.38144828,4.03134483 Z" id="Path"></path>
                    <path d="M15.8949655,9.6152931 L16.2217586,9.4371931 L16.2217586,10.1244448 C16.2217586,10.7132103 16.0581379,11.1218138 15.7483793,11.3522724 C15.4211379,11.580669 15.0777586,11.6959207 14.6837241,11.6959207 C14.4385172,11.6959207 14.2417241,11.6309655 14.0781034,11.5010552 C13.914931,11.3522724 13.8328966,11.1406414 13.8328966,10.8284621 C13.8328966,10.4848138 13.9651379,10.2375897 14.2417241,10.0573828 C14.4048966,9.95889655 14.6837241,9.87717586 15.0441379,9.82898621 L15.8949655,9.6152931 Z M15.1763793,5.76621724 C14.031931,5.74945172 13.2295172,6.06167586 12.7727241,6.6672069 C12.4795517,7.04227931 12.3329655,7.53677241 12.2827586,8.15696207 L13.9839655,8.15696207 C14.0153448,7.86361034 14.1157586,7.66457586 14.2291724,7.53466552 C14.4093793,7.30416207 14.7025517,7.18895517 15.1279655,7.20567586 C15.4883793,7.18895517 15.7649655,7.25391034 15.9617586,7.36911724 C16.1567586,7.46760345 16.2405862,7.66457586 16.2553793,7.94322414 C16.2553793,8.17162069 16.1231379,8.35393448 15.8635862,8.46707931 L14.5537241,8.67866552 C13.9485517,8.7624931 13.459931,8.90706207 13.082931,9.1229069 C12.445931,9.50004138 12.1357241,10.1055724 12.1527586,10.9751379 C12.1357241,11.5785621 12.3329655,12.0709483 12.7247586,12.4313621 C13.0681379,12.7267759 13.5419655,12.8902172 14.1157586,12.9069828 C15.0481724,12.8902172 15.7815517,12.6597138 16.3055862,12.2008586 L16.3055862,12.9069828 L18.0067931,12.9069828 L18.0067931,7.89503448 C18.0067931,7.07581034 17.7095862,6.50376552 17.1564138,6.20835172 C16.5651379,5.89823448 15.9115517,5.74945172 15.1763793,5.76621724 Z" id="Shape"></path>
                    <polygon id="Path" points="11.1531034 4.03134483 9.45189655 4.03134483 9.45189655 12.9069828 11.1531034 12.9069828"></polygon>
                    <path d="M21.9776207,6.01348621 C21.5208276,6.1936931 21.112,6.50587241 20.7663793,6.97943103 L20.7663793,6.11197241 L19.1467586,6.09731379 L19.1467586,12.9069828 L20.8313793,12.9069828 L20.8313793,9.64882414 C20.8313793,9.09143793 20.8963793,8.69964483 21.0452069,8.45237586 C21.1581724,8.1926 21.372,7.97886207 21.6337931,7.79865517 C21.9274138,7.60172759 22.2371724,7.50324138 22.5662069,7.50324138 L23.088,7.53677241 L23.0732069,5.79974828 L22.6312069,5.83327931 L21.9776207,6.01348621 Z" id="Path"></path>
                </g>
                <path d="M4.27832031,13.1269531 C5.37434896,13.1269531 6.23868815,12.8328451 6.87133789,12.2446289 C7.50398763,11.6564128 7.8203125,10.8566081 7.8203125,9.84521484 L7.8203125,9.84521484 L7.8203125,3.7578125 L5.90966797,3.7578125 L5.90966797,9.90869141 C5.89274089,11.0343424 5.34895833,11.597168 4.27832031,11.597168 C3.76627604,11.597168 3.36531576,11.4585775 3.07543945,11.1813965 C2.78556315,10.9042155 2.640625,10.4630534 2.640625,9.85791016 L2.640625,9.85791016 L2.640625,3.7578125 L0.736328125,3.7578125 L0.736328125,9.91503906 C0.749023438,10.913737 1.07275391,11.6987305 1.70751953,12.2700195 C2.34228516,12.8413086 3.19921875,13.1269531 4.27832031,13.1269531 Z M13.5078125,13 L13.5078125,5.30029297 L16.3388672,5.30029297 L16.3388672,3.7578125 L8.81054688,3.7578125 L8.81054688,5.30029297 L11.6035156,5.30029297 L11.6035156,13 L13.5078125,13 Z M19.3286133,13 L19.3286133,10.4736328 L19.1381836,6.11914062 L21.6264648,13 L22.934082,13 L25.4287109,6.11279297 L25.2382812,10.4736328 L25.2382812,13 L27.1489258,13 L27.1489258,3.7578125 L24.6479492,3.7578125 L22.2866211,10.4609375 L19.9125977,3.7578125 L17.4243164,3.7578125 L17.4243164,13 L19.3286133,13 Z M35.4008789,13.1269531 C36.4249674,13.1269531 37.2395833,12.8994954 37.8447266,12.4445801 C38.4498698,11.9896647 38.7524414,11.3623047 38.7524414,10.5625 C38.7524414,9.84309896 38.5048828,9.2421875 38.0097656,8.75976562 C37.5146484,8.27734375 36.7254232,7.87320964 35.6420898,7.54736328 C35.0538737,7.36962891 34.6084798,7.17919922 34.3059082,6.97607422 C34.0033366,6.77294922 33.8520508,6.52115885 33.8520508,6.22070312 C33.8520508,5.89908854 33.9811198,5.63989258 34.2392578,5.44311523 C34.4973958,5.24633789 34.8592122,5.14794922 35.324707,5.14794922 C35.8071289,5.14794922 36.1816406,5.26538086 36.4482422,5.50024414 C36.7148438,5.73510742 36.8481445,6.0641276 36.8481445,6.48730469 L36.8481445,6.48730469 L38.7524414,6.48730469 C38.7524414,5.93294271 38.6096191,5.43782552 38.3239746,5.00195312 C38.0383301,4.56608073 37.6373698,4.22859701 37.1210938,3.98950195 C36.6048177,3.7504069 36.0166016,3.63085938 35.3564453,3.63085938 C34.7005208,3.63085938 34.1091309,3.74088542 33.5822754,3.9609375 C33.0554199,4.18098958 32.6512858,4.48673503 32.369873,4.87817383 C32.0884603,5.26961263 31.9477539,5.71500651 31.9477539,6.21435547 C31.9477539,7.17496745 32.4724935,7.93880208 33.5219727,8.50585938 C33.9070638,8.71321615 34.4296875,8.92374674 35.0898438,9.13745117 C35.75,9.3511556 36.2070312,9.5542806 36.4609375,9.74682617 C36.7148438,9.93937174 36.8417969,10.2154948 36.8417969,10.5751953 C36.8417969,10.9052734 36.7148438,11.1623535 36.4609375,11.3464355 C36.2070312,11.5305176 35.8536784,11.6225586 35.4008789,11.6225586 C34.1821289,11.6225586 33.5727539,11.1126302 33.5727539,10.0927734 L33.5727539,10.0927734 L31.6621094,10.0927734 C31.6621094,10.6894531 31.8155111,11.2141927 32.1223145,11.6669922 C32.4291178,12.1197917 32.8745117,12.4763184 33.4584961,12.7365723 C34.0424805,12.9968262 34.6899414,13.1269531 35.4008789,13.1269531 Z M43.081543,13.1269531 C43.652832,13.1269531 44.1733398,13.017985 44.6430664,12.8000488 C45.112793,12.5821126 45.4851888,12.2784831 45.7602539,11.8891602 L45.7602539,11.8891602 L44.8588867,10.8798828 C44.4611003,11.3919271 43.9088542,11.6479492 43.2021484,11.6479492 C42.7451172,11.6479492 42.3674316,11.5125326 42.0690918,11.2416992 C41.770752,10.9708659 41.5919596,10.6111654 41.5327148,10.1625977 L41.5327148,10.1625977 L45.90625,10.1625977 L45.90625,9.41357422 C45.90625,8.32600911 45.6364746,7.4860026 45.0969238,6.89355469 C44.557373,6.30110677 43.8178711,6.00488281 42.878418,6.00488281 C42.2521159,6.00488281 41.6945801,6.15193685 41.2058105,6.44604492 C40.717041,6.74015299 40.3393555,7.15909831 40.0727539,7.70288086 C39.8061523,8.24666341 39.6728516,8.86344401 39.6728516,9.55322266 L39.6728516,9.55322266 L39.6728516,9.73095703 C39.6728516,10.7592773 39.9891764,11.5823568 40.6218262,12.2001953 C41.2544759,12.8180339 42.0743815,13.1269531 43.081543,13.1269531 Z M44.1035156,8.91210938 L41.5517578,8.91210938 C41.6152344,8.45507812 41.7601725,8.10384115 41.9865723,7.85839844 C42.212972,7.61295573 42.508138,7.49023438 42.8720703,7.49023438 C43.2613932,7.49023438 43.561849,7.60131836 43.7734375,7.82348633 C43.985026,8.0456543 44.0950521,8.35986328 44.1035156,8.76611328 L44.1035156,8.76611328 L44.1035156,8.91210938 Z M48.7817383,13 L48.7817383,8.50585938 C48.9975586,8.03613281 49.452474,7.80126953 50.1464844,7.80126953 C50.3369141,7.80126953 50.5569661,7.81819661 50.8066406,7.85205078 L50.8066406,7.85205078 L50.8320312,6.08740234 C50.6542969,6.03238932 50.4638672,6.00488281 50.2607422,6.00488281 C49.6090495,6.00488281 49.0991211,6.32014974 48.730957,6.95068359 L48.730957,6.95068359 L48.6801758,6.13183594 L46.9472656,6.13183594 L46.9472656,13 L48.7817383,13 Z M55.25,13 L57.5668945,6.13183594 L55.6499023,6.13183594 L54.3740234,10.7592773 L53.0981445,6.13183594 L51.1811523,6.13183594 L53.4980469,13 L55.25,13 Z M59.3886719,5.30664062 C59.6975911,5.30664062 59.9462077,5.21777344 60.1345215,5.04003906 C60.3228353,4.86230469 60.4169922,4.63378906 60.4169922,4.35449219 C60.4169922,4.07942708 60.3238932,3.85302734 60.1376953,3.67529297 C59.9514974,3.49755859 59.7018229,3.40869141 59.3886719,3.40869141 C59.0712891,3.40869141 58.8205566,3.49755859 58.6364746,3.67529297 C58.4523926,3.85302734 58.3603516,4.07942708 58.3603516,4.35449219 C58.3603516,4.63378906 58.4545085,4.86230469 58.6428223,5.04003906 C58.8311361,5.21777344 59.0797526,5.30664062 59.3886719,5.30664062 Z M60.309082,13 L60.309082,6.13183594 L58.4682617,6.13183594 L58.4682617,13 L60.309082,13 Z M64.7080078,13.1269531 C65.2327474,13.1269531 65.7119954,13.0201009 66.145752,12.8063965 C66.5795085,12.5926921 66.921224,12.2922363 67.1708984,11.9050293 C67.4205729,11.5178223 67.547526,11.0914714 67.5517578,10.6259766 L67.5517578,10.6259766 L65.831543,10.6259766 C65.8230794,10.9348958 65.7130534,11.1824544 65.5014648,11.3686523 C65.2898763,11.5548503 65.0148112,11.6479492 64.6762695,11.6479492 C64.2361654,11.6479492 63.9082031,11.4934896 63.6923828,11.1845703 C63.4765625,10.875651 63.3686523,10.3678385 63.3686523,9.66113281 L63.3686523,9.66113281 L63.3686523,9.47070312 C63.3686523,8.77246094 63.4776204,8.26782227 63.6955566,7.95678711 C63.9134928,7.64575195 64.2361654,7.49023438 64.6635742,7.49023438 C65.0105794,7.49023438 65.2898763,7.60131836 65.5014648,7.82348633 C65.7130534,8.0456543 65.8230794,8.33447266 65.831543,8.68994141 L65.831543,8.68994141 L67.5517578,8.68994141 C67.5432943,7.87744141 67.2798665,7.22680664 66.7614746,6.73803711 C66.2430827,6.24926758 65.554362,6.00488281 64.6953125,6.00488281 C63.7135417,6.00488281 62.9412435,6.32014974 62.378418,6.95068359 C61.8155924,7.58121745 61.5341797,8.42545573 61.5341797,9.48339844 L61.5341797,9.48339844 L61.5341797,9.60400391 C61.5341797,10.7042643 61.8177083,11.5664876 62.3847656,12.1906738 C62.9518229,12.81486 63.726237,13.1269531 64.7080078,13.1269531 Z M71.7602539,13.1269531 C72.331543,13.1269531 72.8520508,13.017985 73.3217773,12.8000488 C73.7915039,12.5821126 74.1638997,12.2784831 74.4389648,11.8891602 L74.4389648,11.8891602 L73.5375977,10.8798828 C73.1398112,11.3919271 72.5875651,11.6479492 71.8808594,11.6479492 C71.4238281,11.6479492 71.0461426,11.5125326 70.7478027,11.2416992 C70.4494629,10.9708659 70.2706706,10.6111654 70.2114258,10.1625977 L70.2114258,10.1625977 L74.5849609,10.1625977 L74.5849609,9.41357422 C74.5849609,8.32600911 74.3151855,7.4860026 73.7756348,6.89355469 C73.236084,6.30110677 72.496582,6.00488281 71.5571289,6.00488281 C70.9308268,6.00488281 70.373291,6.15193685 69.8845215,6.44604492 C69.395752,6.74015299 69.0180664,7.15909831 68.7514648,7.70288086 C68.4848633,8.24666341 68.3515625,8.86344401 68.3515625,9.55322266 L68.3515625,9.55322266 L68.3515625,9.73095703 C68.3515625,10.7592773 68.6678874,11.5823568 69.3005371,12.2001953 C69.9331868,12.8180339 70.7530924,13.1269531 71.7602539,13.1269531 Z M72.7822266,8.91210938 L70.2304688,8.91210938 C70.2939453,8.45507812 70.4388835,8.10384115 70.6652832,7.85839844 C70.8916829,7.61295573 71.186849,7.49023438 71.5507812,7.49023438 C71.9401042,7.49023438 72.2405599,7.60131836 72.4521484,7.82348633 C72.663737,8.0456543 72.773763,8.35986328 72.7822266,8.76611328 L72.7822266,8.76611328 L72.7822266,8.91210938 Z" id="UTMService" fill="#FFFFFF"></path>
            </g>
        </g>
    </g>
</svg>