<svg width="31" height="28" xmlns="http://www.w3.org/2000/svg">
    <g fill="none" fill-rule="evenodd">
        <path stroke="#FFF" stroke-linecap="round" stroke-linejoin="round" d="M3.278 21.886V4.797h6.456v17.09M9.734 21.886V1h9.874v13.323"/>
        <path stroke="#FFF" d="M12.513 12.513h1v1.658h-1zM6.057 12.513h1v1.658h-1zM12.513 7.956h1v1.658h-1zM6.057 7.956h1v1.658h-1zM22.006 7.956h1v1.658h-1zM12.513 3.019h1v1.658h-1zM15.93 12.513h1v1.658h-1zM15.93 7.956h1v1.658h-1zM15.93 3.019h1v1.658h-1z"/>
        <path stroke="#FFF" stroke-linecap="round" stroke-linejoin="round" d="M19.608 4.797h5.316v8.17M12.772 21.886V16.57h3.798v5.316"/>
        <path d="M25.303 27.203a.438.438 0 0 1-.145-.025c-1.23-.436-3.49-1.517-4.81-3.87-.81-1.444-.77-3.033-.715-5.233.016-.624.032-1.27.032-1.989 0-.15.11-.282.272-.326l5.25-1.453a.439.439 0 0 1 .233 0l5.25 1.453c.163.044.273.177.273.326 0 .72.016 1.365.032 1.989.055 2.2.094 3.789-.717 5.233-1.319 2.354-3.58 3.435-4.81 3.87a.436.436 0 0 1-.145.025zm-4.86-10.865a86.744 86.744 0 0 1-.032 1.752c-.052 2.102-.09 3.62.636 4.915 1.154 2.06 3.104 3.055 4.257 3.485 1.152-.43 3.102-1.425 4.257-3.485.726-1.294.688-2.813.636-4.915a86.73 86.73 0 0 1-.031-1.752l-4.863-1.346-4.86 1.346z" fill="#FFF" fill-rule="nonzero"/>
        <g transform="translate(23.025 16.57)">
            <path stroke="#FFF" stroke-linejoin="round" d="M0 3.038h4.557v3.418H0z"/>
            <path d="M.76 3.038V1.526C.76.683 1.442 0 2.285 0c0 0 0 0 0 0s0 0 0 0c.835 0 1.511.677 1.511 1.512v1.526h0" stroke="#FFF" stroke-linecap="round" stroke-linejoin="round"/>
            <rect fill="#FFF" x="1.899" y="3.797" width="1" height="1.139" rx=".5"/>
        </g>
        <path stroke="#FFF" stroke-linecap="round" stroke-linejoin="round" d="M1 21.886h17.089"/>
    </g>
</svg>
