<svg width="31" height="25" xmlns="http://www.w3.org/2000/svg">
    <g fill="none" fill-rule="evenodd">
        <path d="M24.458 24.702a.494.494 0 0 1-.164-.028c-1.388-.491-3.939-1.712-5.427-4.367-.915-1.63-.87-3.424-.808-5.906.018-.705.036-1.433.036-2.245 0-.168.124-.318.307-.368l5.925-1.64a.495.495 0 0 1 .263 0l5.925 1.64c.183.05.308.2.308.368 0 .812.018 1.54.036 2.245.062 2.482.106 4.276-.809 5.906-1.488 2.656-4.04 3.876-5.428 4.367a.492.492 0 0 1-.164.028zM18.972 12.44c-.003.713-.02 1.381-.035 1.978-.06 2.373-.102 4.086.717 5.547 1.303 2.324 3.504 3.447 4.804 3.933 1.301-.486 3.502-1.608 4.805-3.933.82-1.46.777-3.175.718-5.547a97.88 97.88 0 0 1-.035-1.978l-5.488-1.518-5.486 1.518z" fill="#FFF" fill-rule="nonzero"/>
        <g transform="translate(21.887 13.13)">
            <path stroke="#FFF" stroke-linejoin="round" d="M0 3.429h5.143v3.857H0z"/>
            <path d="M.857 3.429V1.723C.857.77 1.628 0 2.58 0c0 0 0 0 0 0s0 0 0 0c.942 0 1.706.764 1.706 1.706v1.723h0" stroke="#FFF" stroke-linecap="round" stroke-linejoin="round"/>
            <rect fill="#FFF" x="2.143" y="4.286" width="1" height="1.286" rx=".5"/>
        </g>
        <path d="M16.019 19.187H4a3 3 0 0 1-3-3V4a3 3 0 0 1 3-3h17.413a3 3 0 0 1 3 3v2.95h0" stroke="#FFF" stroke-linecap="round" stroke-linejoin="round"/>
        <path d="m2 2 5.892 6.996a6 6 0 0 0 9.167.015L23 2h0M2.046 18.007l6-5" stroke="#FFF" stroke-linecap="round"/>
    </g>
</svg>
