<svg width="30" height="22" xmlns="http://www.w3.org/2000/svg">
    <path d="M17.074 9.09c.256.187.31.543.122.797l-2.311 3.11a.577.577 0 0 1-.453.232h-.01a.578.578 0 0 1-.451-.215l-1.154-1.437a.565.565 0 0 1 .093-.8.58.58 0 0 1 .808.092l.686.854 1.865-2.51a.576.576 0 0 1 .805-.122zm3.24 4.946a7.519 7.519 0 0 1-3.222 3.164 5.735 5.735 0 0 1-2.034.587.954.954 0 0 1-.063.002 5.756 5.756 0 0 1-2.088-.59 7.918 7.918 0 0 1-3.749-4.34.595.595 0 0 1-.02-.07 7.182 7.182 0 0 1-.35-1.64 30.07 30.07 0 0 1-.128-2.515 20.21 20.21 0 0 1 .133-2.626.574.574 0 0 1 .537-.491c.003 0 .297-.018.765-.096a11.397 11.397 0 0 0 3.798-1.312c.255-.146.503-.306.741-.477a.61.61 0 0 1 .733 0c.238.171.485.33.74.476a11.399 11.399 0 0 0 3.798 1.313c.47.078.763.096.766.096.275.016.5.222.538.491.1.871.145 1.748.132 2.624v.002c-.007.82-.05 1.667-.129 2.518a7.192 7.192 0 0 1-.35 1.638.597.597 0 0 1-.019.068c-.142.407-.32.801-.53 1.178zm-.124-5.41a23.21 23.21 0 0 0-.076-2.022c-.116-.016-.25-.035-.399-.06a12.56 12.56 0 0 1-4.189-1.454A10.279 10.279 0 0 1 15 4.767c-.164.108-.338.215-.527.324a12.558 12.558 0 0 1-4.188 1.453c-.148.025-.282.045-.398.06a23.232 23.232 0 0 0-.076 2.024c.006.785.048 1.6.124 2.42.046.488.15.968.312 1.43l.014.049.002.008c.117.327.26.644.43.947a6.38 6.38 0 0 0 2.728 2.699 4.61 4.61 0 0 0 1.58.467 4.603 4.603 0 0 0 1.577-.467 6.775 6.775 0 0 0 3.16-3.646l.002-.009a.495.495 0 0 1 .014-.048c.16-.461.265-.94.311-1.427.077-.823.118-1.638.125-2.425zM30 12.663V20.719c0 .315-.258.57-.575.57h-4.801l-.01.001H5.386l-.01-.002h-4.8A.572.572 0 0 1 0 20.72V.571c0-.314.258-.57.575-.57h4.803L5.386 0h19.228c.318 0 .576.255.576.57v3.46h4.234c.318 0 .575.255.575.57v4.028L30 8.63v4.033zm-1.15-.572V9.2h-3.658v2.89h3.657zm-24.042 0V9.199H1.151v2.892h3.657zM1.151 1.14v2.89h3.657V1.14H1.151zM4.808 20.15v-2.89H1.151v2.89h3.657zm19.23-2.89h-4.297a.572.572 0 0 1-.575-.57c0-.314.257-.569.575-.569h9.108v-2.892h-6.72a.572.572 0 0 1-.576-.569c0-.314.258-.57.576-.57h1.91V9.2H22.49a.572.572 0 0 1-.575-.57c0-.315.257-.57.575-.57h6.358V5.17h-7.255a.572.572 0 0 1-.576-.57c0-.314.258-.569.576-.569h2.445V1.138h-8.464v1.224c0 .315-.257.57-.575.57a.572.572 0 0 1-.575-.57V1.138H5.96V4.03h2.44c.318 0 .575.255.575.57 0 .314-.257.569-.575.569H1.15v2.892H7.51c.318 0 .576.254.576.569 0 .314-.258.57-.576.57H5.961v2.89h1.91c.318 0 .576.256.576.57 0 .314-.258.57-.575.57h-6.72v2.89h4.232l.006.001h4.875c.318 0 .575.255.575.57 0 .314-.257.569-.575.569H5.961v2.891h8.464v-1.223c0-.315.257-.57.575-.57.318 0 .575.255.575.57v1.223h8.464V17.26zm4.811 2.89v-2.89h-3.657v2.89h3.657z" fill="#FFF" fill-rule="nonzero"/>
</svg>
