<svg width="32" height="24" xmlns="http://www.w3.org/2000/svg">
    <g transform="translate(1 1)" fill="none" fill-rule="evenodd">
        <path d="M1.951 17.256V1.2a1.2 1.2 0 0 1 1.2-1.2H26.75a1.2 1.2 0 0 1 1.2 1.2v16.056" stroke="#FFF"/>
        <path d="M7.432 17.256H.4a.4.4 0 0 0-.326.63l1.82 2.572a2.8 2.8 0 0 0 2.285 1.182h20.953a2.8 2.8 0 0 0 2.162-1.02l2.23-2.71a.4.4 0 0 0-.31-.654h-5.922 0" stroke="#FFF" stroke-linecap="round" stroke-linejoin="round"/>
        <circle stroke="#FFF" fill="#000" cx="14.979" cy="11" r="6.9"/>
        <path d="m15.397 12.857-.906-.906 3.449-3.448.535.535a.299.299 0 0 0 .432 0 .298.298 0 0 0 0-.432l-1.513-1.513a.299.299 0 0 0-.433 0 .298.298 0 0 0 0 .432l.536.535-3.439 3.449-.906-.906a.299.299 0 0 0-.432 0l-1.081 1.08c-.68.68-.834 1.699-.381 2.595a.757.757 0 0 0 .206.257c.061.062.144.144.257.195a2.184 2.184 0 0 0 2.605-.38l1.07-1.06a.298.298 0 0 0 0-.433z" fill="#FFF" fill-rule="nonzero"/>
        <path stroke="#FFF" stroke-linecap="round" stroke-linejoin="round" d="M1.951 5.228 7.979 5.2M21.579 5.2l6.057.028"/>
        <path stroke="#FFF" d="m10.062 5.911 9.888 9.986"/>
    </g>
</svg>
