<svg width="31" height="30" xmlns="http://www.w3.org/2000/svg">
    <g transform="translate(1 -4)" fill="none" fill-rule="evenodd">
        <path d="M23.365 33.5a.48.48 0 0 1-.16-.027c-1.349-.478-3.829-1.665-5.276-4.246-.89-1.585-.846-3.328-.786-5.742.018-.685.035-1.393.035-2.182 0-.164.121-.31.3-.358l5.76-1.594a.481.481 0 0 1 .255 0l5.761 1.594c.178.049.299.194.299.358 0 .789.018 1.497.035 2.182.06 2.413.104 4.157-.786 5.742-1.447 2.582-3.928 3.768-5.278 4.246a.479.479 0 0 1-.159.027zm-5.333-11.921c-.004.693-.02 1.342-.035 1.923-.057 2.306-.1 3.972.698 5.393 1.266 2.26 3.406 3.351 4.67 3.823 1.265-.472 3.405-1.563 4.672-3.823.797-1.42.755-3.087.697-5.393-.014-.58-.03-1.23-.034-1.923l-5.335-1.476-5.333 1.476z" fill="#FFF" fill-rule="nonzero"/>
        <g transform="translate(20.866 21.833)">
            <path stroke="#FFF" stroke-linejoin="round" d="M0 3.333h5v3.75H0z"/>
            <path d="M.833 3.333V1.675C.833.75 1.583 0 2.508 0c0 0 0 0 0 0s0 0 0 0c.916 0 1.659.743 1.659 1.659v1.674h0" stroke="#FFF" stroke-linecap="round" stroke-linejoin="round"/>
            <rect fill="#FFF" x="2.083" y="4.167" width="1" height="1.25" rx=".5"/>
        </g>
        <circle fill="#FFF" cx="12.949" cy="21.833" r="2.083"/>
        <path d="M7.083 18.708a6.971 6.971 0 0 1 11.53 0h0M3.75 14.48a13.975 13.975 0 0 1 18.75 0h0M0 9.48l.042-.03a21.794 21.794 0 0 1 25.791.03h0" stroke="#FFF" stroke-width="2" stroke-linecap="round" stroke-linejoin="round"/>
    </g>
</svg>
